<svg width="24" height="26" viewBox="0 0 24 26" fill="none" xmlns="http://www.w3.org/2000/svg">
<path d="M22.1095 5.51668L13.1268 0.307448C12.7773 0.106024 12.3809 0 11.9775 0C11.5741 0 11.1778 0.106024 10.8282 0.307448L1.84556 5.51668C1.49499 5.72171 1.20379 6.01442 1.00058 6.36605C0.797365 6.71767 0.689128 7.11612 0.686503 7.52224V8.25478C0.435914 8.37417 0.234244 8.57644 0.115595 8.82738C-0.0030534 9.07832 -0.0313998 9.36254 0.0353491 9.63197C0.0881215 9.85281 0.203389 10.0538 0.367365 10.2108C0.531341 10.3679 0.737084 10.4743 0.959988 10.5175C1.13629 10.5536 1.31841 10.5502 1.49322 10.5075C1.66804 10.4648 1.83122 10.3838 1.97101 10.2705C2.1108 10.1572 2.22374 10.0143 2.30169 9.85207C2.37964 9.68987 2.42067 9.5124 2.42183 9.33244C2.42159 9.10568 2.35648 8.88372 2.23417 8.69277C2.11187 8.50181 1.93749 8.34984 1.73161 8.25478V7.52224C1.73364 7.30079 1.79211 7.08352 1.90149 6.89097C2.01087 6.69841 2.16755 6.53693 2.35671 6.42178L11.3361 1.21255C11.5266 1.10324 11.7417 1.04389 11.9612 1.04C12.1797 1.04443 12.3936 1.10377 12.5831 1.21255L21.5658 6.42178C21.7572 6.53418 21.9155 6.69515 22.0247 6.88839C22.1339 7.08163 22.1901 7.30029 22.1876 7.52224L22.1746 10.6022C22.1413 11.7687 21.6884 12.8841 20.8989 13.7435C20.1095 14.6029 19.0365 15.1488 17.877 15.2807L17.8542 11.6799C17.852 11.6059 17.8311 11.5337 17.7935 11.47C17.756 11.4062 17.7029 11.353 17.6393 11.3152L15.8551 10.2571C15.7607 10.2049 15.6497 10.1917 15.5456 10.2203C15.4416 10.2489 15.3529 10.317 15.2984 10.4101L14.6473 11.4422L13.4296 10.7324C13.3606 10.6939 13.2793 10.6835 13.2029 10.7036C13.1264 10.7236 13.0606 10.7724 13.0194 10.8399L12.6938 11.4226C12.6606 11.4922 12.6532 11.5713 12.6729 11.6458C12.6926 11.7204 12.738 11.7855 12.8012 11.8296L14.0059 12.5198L12.7849 14.5091L11.6454 13.858C11.5764 13.8194 11.4952 13.8091 11.4187 13.8291C11.3422 13.8491 11.2765 13.898 11.2352 13.9654L10.9096 14.5482C10.8889 14.5817 10.8752 14.619 10.8693 14.658C10.8635 14.697 10.8657 14.7367 10.8758 14.7748C10.8858 14.8129 10.9035 14.8485 10.9278 14.8795C10.9521 14.9105 10.9825 14.9363 11.0171 14.9552L12.1143 15.6063L11.4924 16.6189C11.4589 16.6653 11.4372 16.7192 11.4292 16.776C11.4213 16.8327 11.4273 16.8906 11.4468 16.9444C11.46 17.0015 11.4862 17.0548 11.5235 17.1C11.5608 17.1452 11.6081 17.1811 11.6617 17.2049L13.6152 18.2598C13.6733 18.2933 13.7404 18.3081 13.8073 18.3021C13.8746 18.3014 13.941 18.287 14.0026 18.2598L17.4407 16.3649C18.958 16.3459 20.4088 15.7392 21.4879 14.6723C22.5669 13.6054 23.1901 12.1615 23.2262 10.6445L23.249 7.49944C23.2547 7.09707 23.1519 6.70059 22.9513 6.35168C22.7508 6.00278 22.46 5.71434 22.1095 5.51668ZM1.79672 9.225C1.81435 9.31935 1.80866 9.41658 1.78015 9.50823C1.75165 9.59988 1.70119 9.68318 1.63316 9.75089C1.56513 9.8186 1.48159 9.86867 1.3898 9.89674C1.29802 9.92481 1.20076 9.93004 1.1065 9.91197C0.996424 9.88686 0.895752 9.83099 0.816207 9.75086C0.736662 9.67074 0.681519 9.56967 0.657201 9.45942C0.639743 9.36539 0.645432 9.26852 0.673778 9.17718C0.702124 9.08584 0.752274 9.00277 0.8199 8.93515C0.887525 8.86752 0.970593 8.81737 1.06193 8.78903C1.15327 8.76068 1.25014 8.75499 1.34417 8.77245C1.45738 8.79127 1.56186 8.84501 1.64301 8.92616C1.72416 9.00731 1.7779 9.1118 1.79672 9.225Z" fill="#164A84"/>
<path d="M22.73 14.7629C22.572 14.7629 22.4155 14.7941 22.2695 14.8547C22.1236 14.9153 21.991 15.004 21.8794 15.1159C21.7678 15.2279 21.6794 15.3607 21.6192 15.5068C21.559 15.6529 21.5282 15.8095 21.5287 15.9676C21.5282 16.1941 21.5927 16.4159 21.7144 16.6069C21.8362 16.7979 22.0101 16.95 22.2156 17.0452V17.8885C22.2149 18.1097 22.157 18.3271 22.0474 18.5193C21.9379 18.7116 21.7805 18.8722 21.5905 18.9857L12.6111 24.1949C12.4198 24.2992 12.2055 24.3538 11.9876 24.3538C11.7698 24.3538 11.5554 24.2992 11.3641 24.1949L2.36194 19.0084C2.16994 18.8965 2.01098 18.7357 1.90119 18.5424C1.79141 18.3491 1.7347 18.1303 1.73683 17.908L1.75962 14.7825C1.79762 13.6411 2.23597 12.5496 2.9979 11.6989C3.75982 10.8483 4.79673 10.2929 5.92701 10.13L5.96933 13.7504C5.97215 13.8242 5.99326 13.8962 6.03077 13.9598C6.06827 14.0235 6.121 14.0768 6.18421 14.115L7.9814 15.1601C8.04439 15.2039 8.11959 15.2267 8.19628 15.2252C8.26875 15.2269 8.34042 15.2098 8.40432 15.1756C8.46822 15.1413 8.52217 15.0912 8.56093 15.0299L12.3083 8.79184C12.3419 8.74539 12.3636 8.69145 12.3715 8.63471C12.3794 8.57796 12.3734 8.52014 12.3539 8.46626C12.3403 8.40935 12.3138 8.3563 12.2766 8.31116C12.2394 8.26602 12.1923 8.22998 12.139 8.2058L10.1856 7.17372C10.1225 7.14169 10.0528 7.125 9.98207 7.125C9.91135 7.125 9.84163 7.14169 9.77858 7.17372L6.39909 9.0523C4.90334 9.10005 3.48253 9.71821 2.42797 10.78C1.37342 11.8419 0.765025 13.2669 0.727542 14.7629L0.708008 17.908C0.709988 18.3142 0.817953 18.7129 1.02123 19.0647C1.22451 19.4164 1.51606 19.709 1.86706 19.9136L10.8497 25.1228C11.2012 25.3275 11.6021 25.4322 12.0088 25.4256C12.414 25.4204 12.8119 25.3165 13.1678 25.1228L22.1505 19.9136C22.5015 19.709 22.7931 19.4164 22.9963 19.0647C23.1996 18.7129 23.3076 18.3142 23.3096 17.908V17.068C23.5152 16.9726 23.6894 16.8206 23.8116 16.6297C23.9339 16.4388 23.9992 16.217 23.9998 15.9903C23.9811 15.6636 23.84 15.356 23.6047 15.1285C23.3695 14.9011 23.0572 14.7706 22.73 14.7629ZM22.73 16.5503C22.6146 16.551 22.5016 16.5174 22.4054 16.4537C22.3091 16.3901 22.2339 16.2993 22.1893 16.1928C22.1447 16.0864 22.1327 15.9691 22.1548 15.8559C22.1769 15.7426 22.2322 15.6385 22.3135 15.5566C22.3949 15.4748 22.4988 15.419 22.6119 15.3962C22.725 15.3735 22.8424 15.3848 22.949 15.4288C23.0557 15.4728 23.1469 15.5475 23.2111 15.6434C23.2753 15.7394 23.3096 15.8522 23.3096 15.9676C23.3104 16.0441 23.2961 16.12 23.2673 16.1908C23.2385 16.2617 23.1959 16.3262 23.142 16.3804C23.088 16.4347 23.0238 16.4776 22.9531 16.5068C22.8824 16.536 22.8065 16.5508 22.73 16.5503Z" fill="#164A84"/>
<path d="M19.4898 16.5919V16.8524C19.487 16.9075 19.4717 16.9613 19.4452 17.0098C19.4188 17.0583 19.3817 17.1002 19.3368 17.1324L12.1188 21.3128C12.0737 21.3404 12.0219 21.355 11.969 21.355C11.9161 21.355 11.8643 21.3404 11.8192 21.3128L4.65653 17.2398C4.60702 17.2128 4.56648 17.1719 4.53988 17.1221C4.51328 17.0724 4.50177 17.016 4.50676 16.9598V11.2524C3.91077 11.6004 3.40892 12.0889 3.04492 12.6752V16.9598C3.04518 17.2755 3.12907 17.5856 3.28805 17.8584C3.44704 18.1311 3.67544 18.357 3.95003 18.5128L11.1127 22.5858C11.382 22.7351 11.6839 22.8157 11.9918 22.8202C12.2989 22.8179 12.6004 22.7372 12.8676 22.5858L20.0693 18.4151C20.3404 18.2575 20.5647 18.0306 20.7192 17.7577C20.8737 17.4848 20.9528 17.1757 20.9484 16.8621V15.8854C20.4961 16.1852 20.0055 16.4229 19.4898 16.5919Z" fill="#E0225C"/>
<path d="M20.0672 7.01932L12.8655 2.84216C12.5955 2.6914 12.2924 2.60976 11.9831 2.60449C11.6746 2.60737 11.372 2.68919 11.1041 2.84216L3.90884 7.01932C3.63716 7.17574 3.41216 7.40184 3.25706 7.67428C3.10195 7.94671 3.02237 8.2556 3.02652 8.56906V9.54579C3.48378 9.24581 3.97435 8.99997 4.48836 8.81325V8.55278C4.49128 8.49799 4.50621 8.44451 4.53209 8.39612C4.55797 8.34774 4.59417 8.30563 4.63813 8.27279L11.8171 4.11517C11.8633 4.08968 11.9143 4.07416 11.9669 4.06959C12.02 4.07075 12.0718 4.08652 12.1166 4.11517L19.2793 8.27279C19.3286 8.30013 19.3689 8.34108 19.3954 8.39074C19.422 8.4404 19.4337 8.49666 19.4291 8.55278V14.156C20.0253 13.8096 20.5273 13.3222 20.8909 12.7364V8.53325C20.9039 8.22992 20.8341 7.92878 20.689 7.66209C20.5439 7.3954 20.3289 7.17321 20.0672 7.01932Z" fill="#EBB22B"/>
</svg>
