<svg width="24" height="27" viewBox="0 0 24 27" fill="none" xmlns="http://www.w3.org/2000/svg">
<path fill-rule="evenodd" clip-rule="evenodd" d="M10.5487 0.388661C10.9906 0.134028 11.4917 0 12.0018 0C12.5118 0 13.0129 0.134028 13.4549 0.388661L22.5467 5.62875C22.9882 5.88296 23.355 6.24902 23.6101 6.69008C23.8651 7.13114 23.9995 7.63161 23.9996 8.14112V18.6213C23.9995 19.1308 23.8651 19.6313 23.61 20.0724C23.355 20.5135 22.9882 20.8796 22.5467 21.1339L13.4549 26.3737C13.013 26.6286 12.5119 26.7627 12.0018 26.7627C11.4917 26.7627 10.9905 26.6286 10.5487 26.3737L1.45689 21.1339C1.01539 20.8796 0.648653 20.5135 0.393587 20.0724C0.138521 19.6313 0.00412273 19.1308 0.00390625 18.6213V8.14112C0.00408836 7.63162 0.138475 7.13117 0.393546 6.69012C0.648618 6.24907 1.01537 5.883 1.45689 5.62875L10.5487 0.388661Z" fill="#FEBD00"/>
<mask id="mask0_11149_17120" style="mask-type:alpha" maskUnits="userSpaceOnUse" x="0" y="0" width="24" height="27">
<path fill-rule="evenodd" clip-rule="evenodd" d="M10.5448 0.388661C10.9867 0.134028 11.4878 0 11.9979 0C12.5079 0 13.009 0.134028 13.451 0.388661L22.5427 5.62875C22.9843 5.88296 23.3511 6.24903 23.6062 6.69008C23.8612 7.13114 23.9956 7.63161 23.9957 8.14112V18.6213C23.9956 19.1308 23.8612 19.6313 23.6061 20.0724C23.351 20.5135 22.9843 20.8796 22.5427 21.1339L13.451 26.3738C13.0091 26.6286 12.508 26.7627 11.9979 26.7627C11.4878 26.7627 10.9866 26.6286 10.5448 26.3738L1.45298 21.1339C1.01148 20.8796 0.644746 20.5135 0.389681 20.0724C0.134615 19.6313 0.00021648 19.1308 0 18.6213V8.14112C0.000182107 7.63163 0.134569 7.13117 0.38964 6.69012C0.644711 6.24908 1.01147 5.883 1.45298 5.62875L10.5448 0.388661Z" fill="#3B86FF"/>
</mask>
<g mask="url(#mask0_11149_17120)">
<g style="mix-blend-mode:overlay" opacity="0.3">
<path d="M12.0084 0H-0.266602V26.9516H12.0084V0Z" fill="white"/>
</g>
<path d="M12.4677 16.0685C12.4717 18.1112 13.8342 19.9111 15.7955 20.4648C17.3362 20.9971 21.8426 21.8149 27.5431 20.8283L27.5431 22.3357C25.4876 22.3357 19.9977 23.119 15.4339 21.7964C12.8747 21.0737 11.0969 18.7248 11.0916 16.0591L11.0865 13.5201C11.0858 13.1386 11.3935 12.8308 11.7731 12.8333C12.1529 12.8358 12.4618 13.1477 12.4626 13.5295L12.4677 16.0685Z" fill="white"/>
<path d="M14.0611 15.235L11.81 11.8858L9.40277 15.1565L11.0732 15.1847L12.4358 15.2076L14.0611 15.235Z" fill="white"/>
</g>
<path d="M16.6355 11.3906C16.566 8.87621 14.4583 6.85156 11.8773 6.85156C10.6917 6.85156 9.55564 7.28166 8.67847 8.06257C7.92266 8.73543 7.41193 9.62008 7.21195 10.5892C6.49744 10.7398 5.84526 11.1022 5.34065 11.6356C4.72424 12.2872 4.38477 13.1359 4.38477 14.0251C4.38477 15.9632 5.99284 17.5399 7.96944 17.5399C7.97412 17.5399 7.97874 17.5398 7.98213 17.5397H8.58647V16.3874H7.97727L7.96608 16.3875C6.6391 16.3857 5.56007 15.3266 5.56007 14.0251C5.56007 12.8022 6.5325 11.7679 7.77393 11.6705L8.26169 11.6322L8.31165 11.155C8.49963 9.35858 10.0326 8.00391 11.8773 8.00391C13.8539 8.00391 15.462 9.58062 15.462 11.5187V12.527H16.3141C17.3996 12.527 18.2827 13.3929 18.2827 14.4572C18.2827 15.5216 17.3996 16.3875 16.3141 16.3875L15.2857 16.3873V17.5397H16.295C16.3013 17.5398 16.3077 17.5399 16.3141 17.5399C18.0477 17.5399 19.458 16.157 19.458 14.4573C19.458 12.8638 18.2188 11.5489 16.6355 11.3906Z" fill="white" stroke="white"/>
</svg>
