<svg width="24" height="27" viewBox="0 0 24 27" fill="none" xmlns="http://www.w3.org/2000/svg">
<path fill-rule="evenodd" clip-rule="evenodd" d="M10.5487 0.388661C10.9906 0.134028 11.4917 0 12.0018 0C12.5118 0 13.0129 0.134028 13.4549 0.388661L22.5467 5.62875C22.9882 5.88296 23.355 6.24902 23.6101 6.69008C23.8651 7.13114 23.9995 7.63161 23.9996 8.14112V18.6213C23.9995 19.1308 23.8651 19.6313 23.61 20.0724C23.355 20.5135 22.9882 20.8796 22.5467 21.1339L13.4549 26.3737C13.013 26.6286 12.5119 26.7627 12.0018 26.7627C11.4917 26.7627 10.9905 26.6286 10.5487 26.3737L1.45689 21.1339C1.01539 20.8796 0.648653 20.5135 0.393587 20.0724C0.138521 19.6313 0.00412273 19.1308 0.00390625 18.6213V8.14112C0.00408836 7.63162 0.138475 7.13117 0.393546 6.69012C0.648618 6.24907 1.01537 5.883 1.45689 5.62875L10.5487 0.388661Z" fill="url(#paint0_linear_11149_17143)"/>
<mask id="mask0_11149_17143" style="mask-type:alpha" maskUnits="userSpaceOnUse" x="0" y="0" width="24" height="27">
<path fill-rule="evenodd" clip-rule="evenodd" d="M10.5448 0.388661C10.9867 0.134028 11.4878 0 11.9979 0C12.5079 0 13.009 0.134028 13.451 0.388661L22.5427 5.62875C22.9843 5.88296 23.3511 6.24903 23.6062 6.69008C23.8612 7.13114 23.9956 7.63161 23.9957 8.14112V18.6213C23.9956 19.1308 23.8612 19.6313 23.6061 20.0724C23.351 20.5135 22.9843 20.8796 22.5427 21.1339L13.451 26.3738C13.0091 26.6286 12.508 26.7627 11.9979 26.7627C11.4878 26.7627 10.9866 26.6286 10.5448 26.3738L1.45298 21.1339C1.01148 20.8796 0.644746 20.5135 0.389681 20.0724C0.134615 19.6313 0.00021648 19.1308 0 18.6213V8.14112C0.000182107 7.63163 0.134569 7.13117 0.38964 6.69012C0.644711 6.24908 1.01147 5.883 1.45298 5.62875L10.5448 0.388661Z" fill="#3B86FF"/>
</mask>
<g mask="url(#mask0_11149_17143)">
<g style="mix-blend-mode:overlay" opacity="0.5">
<path d="M12.0084 0H-0.266602V26.9516H12.0084V0Z" fill="white"/>
</g>
<path d="M12.0586 17.34L-3.33786e-05 12.4702V10.9629L12.0586 15.8327V17.34Z" fill="white"/>
<path d="M12.0586 20.0808L24.1172 15.2109V13.7036L12.0586 18.5734V20.0808Z" fill="white"/>
</g>
<path d="M5.20703 9.04382L12.0585 6.30322L18.91 9.04382H5.20703Z" fill="white"/>
<path d="M5.20703 9.04358L12.0585 11.7842L18.91 9.04358H5.20703Z" fill="white"/>
<path d="M12.0596 14.5995L19.1851 11.7218L17.5408 10.9629L12.0596 13.0921V14.5995Z" fill="white"/>
<path d="M12.0596 14.5995L4.93402 11.7218L6.57838 10.9629L12.0596 13.0921V14.5995Z" fill="white"/>
<path d="M12.0596 17.3392L19.1851 14.4616L17.5408 13.7026L12.0596 15.8319V17.3392Z" fill="white"/>
<path d="M12.0596 20.0799L4.93402 17.2023L6.57838 16.4434L12.0596 18.5726V20.0799Z" fill="white"/>
<defs>
<linearGradient id="paint0_linear_11149_17143" x1="22.8836" y1="-6.29541e-07" x2="-2.878" y2="26.8579" gradientUnits="userSpaceOnUse">
<stop stop-color="#EE2722"/>
<stop offset="1" stop-color="#FF9330"/>
</linearGradient>
</defs>
</svg>
