<svg width="24" height="28" viewBox="0 0 24 28" fill="none" xmlns="http://www.w3.org/2000/svg">
<path d="M11.6758 3.25439L12.3225 3.60881L3.87809 18.828L3.23145 18.4736L11.6758 3.25439Z" fill="#498FC6"/>
<path d="M3.87702 8.62305L12.3214 23.5438L11.6778 23.9036L3.2334 8.98286L3.87702 8.62305Z" fill="#498FC6"/>
<path d="M22.1538 18.7954V19.5294H3.69238V18.7954H22.1538Z" fill="#498FC6"/>
<path fill-rule="evenodd" clip-rule="evenodd" d="M10.8394 1.79053C10.8394 1.79053 8.17959 4.25525 6.81423 5.0731C5.44898 5.89084 2.22168 6.95244 2.22168 6.95244L3.08539 8.65408C3.08539 8.65408 5.59041 6.28215 7.11053 5.37151C8.63075 4.46088 11.7031 3.49217 11.7031 3.49217" fill="#404040"/>
<path fill-rule="evenodd" clip-rule="evenodd" d="M10.6929 25.5144C10.6929 25.5144 8.033 23.0496 6.66775 22.2319C5.30249 21.4141 2.0752 20.3525 2.0752 20.3525L2.9389 18.6509C2.9389 18.6509 5.44382 21.0228 6.96404 21.9334C8.48427 22.844 11.5566 23.8128 11.5566 23.8128" fill="#404040"/>
<path fill-rule="evenodd" clip-rule="evenodd" d="M20.4693 19.0986C20.4693 19.0986 17.8095 21.5633 16.4441 22.3812C15.0789 23.1989 11.8516 24.2606 11.8516 24.2606L12.7153 25.9622C12.7153 25.9622 15.2203 23.5902 16.7404 22.6796C18.2606 21.769 21.333 20.8002 21.333 20.8002" fill="#404040"/>
<path fill-rule="evenodd" clip-rule="evenodd" d="M1.03711 8.6543C1.03711 8.6543 1.92599 12.2218 1.92599 13.8766C1.92599 15.5312 1.03711 19.0988 1.03711 19.0988H3.25931C3.25931 19.0988 2.37043 15.719 2.37043 13.8766C2.37043 12.0341 3.25931 8.6543 3.25931 8.6543" fill="#404040"/>
<path fill-rule="evenodd" clip-rule="evenodd" d="M13.9264 2.08891C13.9264 3.24261 12.9978 4.17782 11.8524 4.17782C10.7069 4.17782 9.77832 3.24261 9.77832 2.08891C9.77832 0.935309 10.7069 0 11.8524 0C12.9978 0 13.9264 0.935309 13.9264 2.08891Z" fill="#633AB3"/>
<path fill-rule="evenodd" clip-rule="evenodd" d="M4.14811 7.90776C4.14811 9.06136 3.21945 9.99666 2.07406 9.99666C0.928555 9.99666 0 9.06136 0 7.90776C0 6.75405 0.928555 5.81885 2.07406 5.81885C3.21945 5.81885 4.14811 6.75405 4.14811 7.90776Z" fill="#E87714"/>
<path fill-rule="evenodd" clip-rule="evenodd" d="M13.9264 25.0669C13.9264 26.2205 12.9978 27.1558 11.8524 27.1558C10.7069 27.1558 9.77832 26.2205 9.77832 25.0669C9.77832 23.9132 10.7069 22.978 11.8524 22.978C12.9978 22.978 13.9264 23.9132 13.9264 25.0669Z" fill="#E87714"/>
<path fill-rule="evenodd" clip-rule="evenodd" d="M4.14811 19.2481C4.14811 20.4017 3.21945 21.337 2.07406 21.337C0.928555 21.337 0 20.4017 0 19.2481C0 18.0944 0.928555 17.1592 2.07406 17.1592C3.21945 17.1592 4.14811 18.0944 4.14811 19.2481Z" fill="#633AB3"/>
<path fill-rule="evenodd" clip-rule="evenodd" d="M23.9997 19.2481C23.9997 20.4017 23.071 21.337 21.9256 21.337C20.7801 21.337 19.8516 20.4017 19.8516 19.2481C19.8516 18.0944 20.7801 17.1592 21.9256 17.1592C23.071 17.1592 23.9997 18.0944 23.9997 19.2481Z" fill="#633AB3"/>
</svg>
