<svg width="24" height="27" viewBox="0 0 24 27" fill="none" xmlns="http://www.w3.org/2000/svg">
<path fill-rule="evenodd" clip-rule="evenodd" d="M10.5487 0.388661C10.9906 0.134028 11.4917 0 12.0018 0C12.5118 0 13.0129 0.134028 13.4549 0.388661L22.5467 5.62875C22.9882 5.88296 23.355 6.24902 23.6101 6.69008C23.8651 7.13114 23.9995 7.63161 23.9996 8.14112V18.6213C23.9995 19.1308 23.8651 19.6313 23.61 20.0724C23.355 20.5135 22.9882 20.8796 22.5467 21.1339L13.4549 26.3737C13.013 26.6286 12.5119 26.7627 12.0018 26.7627C11.4917 26.7627 10.9905 26.6286 10.5487 26.3737L1.45689 21.1339C1.01539 20.8796 0.648653 20.5135 0.393587 20.0724C0.138521 19.6313 0.00412273 19.1308 0.00390625 18.6213V8.14112C0.00408836 7.63162 0.138475 7.13117 0.393546 6.69012C0.648618 6.24907 1.01537 5.883 1.45689 5.62875L10.5487 0.388661Z" fill="#4E42DA"/>
<mask id="mask0_11149_17109" style="mask-type:alpha" maskUnits="userSpaceOnUse" x="0" y="0" width="24" height="27">
<path fill-rule="evenodd" clip-rule="evenodd" d="M10.5448 0.388661C10.9867 0.134028 11.4878 0 11.9979 0C12.5079 0 13.009 0.134028 13.451 0.388661L22.5427 5.62875C22.9843 5.88296 23.3511 6.24903 23.6062 6.69008C23.8612 7.13114 23.9956 7.63161 23.9957 8.14112V18.6213C23.9956 19.1308 23.8612 19.6313 23.6061 20.0724C23.351 20.5135 22.9843 20.8796 22.5427 21.1339L13.451 26.3738C13.0091 26.6286 12.508 26.7627 11.9979 26.7627C11.4878 26.7627 10.9866 26.6286 10.5448 26.3738L1.45298 21.1339C1.01148 20.8796 0.644746 20.5135 0.389681 20.0724C0.134615 19.6313 0.00021648 19.1308 0 18.6213V8.14112C0.000182107 7.63163 0.134569 7.13117 0.38964 6.69012C0.644711 6.24908 1.01147 5.883 1.45298 5.62875L10.5448 0.388661Z" fill="#3B86FF"/>
</mask>
<g mask="url(#mask0_11149_17109)">
<g style="mix-blend-mode:overlay" opacity="0.3">
<path d="M12.0084 0H-0.266602V26.9516H12.0084V0Z" fill="white"/>
</g>
<path fill-rule="evenodd" clip-rule="evenodd" d="M-11.4272 21.5636C-11.4272 21.5636 -2.26997 12.648 2.52283 7.98182C3.98303 6.56017 6.22303 6.28013 7.99405 7.29811C9.17117 7.97457 10.1954 8.56317 10.1954 8.56317C10.5264 8.75337 10.9511 8.64179 11.1432 8.31411C11.3351 7.98664 11.2224 7.56627 10.8916 7.37607C10.8916 7.37607 9.86711 6.78726 8.6902 6.11102C6.37899 4.78271 3.45592 5.14795 1.55047 7.00293C-3.24233 11.6694 -12.3993 20.585 -12.3993 20.585C-12.6722 20.8505 -12.676 21.2854 -12.4075 21.5555C-12.1393 21.8257 -11.7001 21.8292 -11.4272 21.5636Z" fill="white"/>
<path d="M7.91857 9.095L11.9446 8.82006L10.3157 5.09999L9.45612 6.53253L8.75495 7.70112L7.91857 9.095Z" fill="white"/>
<path fill-rule="evenodd" clip-rule="evenodd" d="M35.2709 5.40414C35.2709 5.40414 26.1137 14.3197 21.3209 18.986C19.8607 20.4076 17.6207 20.6876 15.8497 19.6697C14.6726 18.9932 13.6483 18.4046 13.6483 18.4046C13.3173 18.2144 12.8927 18.326 12.7006 18.6537C12.5087 18.9811 12.6214 19.4015 12.9522 19.5917C12.9522 19.5917 13.9766 20.1805 15.1535 20.8567C17.4648 22.1851 20.3878 21.8198 22.2933 19.9648C27.0861 15.2984 36.2431 6.3828 36.2431 6.3828C36.5159 6.11727 36.5197 5.68241 36.2513 5.41226C35.9831 5.14212 35.5438 5.13861 35.2709 5.40414Z" fill="white"/>
<path d="M15.9242 17.8728L11.8982 18.1477L13.5271 21.8678L14.3867 20.4352L15.0878 19.2666L15.9242 17.8728Z" fill="white"/>
</g>
<path d="M16.573 17.3857C15.5657 17.3857 14.6144 16.994 13.9324 16.312L11.9564 14.5633L11.9529 14.5668L10.8931 13.633L10.9001 13.626L9.01501 11.9542C8.56735 11.51 7.97279 11.2652 7.33974 11.2652C6.03171 11.2652 4.96847 12.3249 4.96847 13.626C4.96847 14.927 6.03171 15.9868 7.33974 15.9868C7.97279 15.9868 8.56735 15.7419 9.04649 15.2663L9.8404 14.5633L10.8966 15.4971L10.0118 16.2805C9.29827 16.9905 8.35045 17.3822 7.33971 17.3822C5.25528 17.3857 3.5625 15.6999 3.5625 13.626C3.5625 11.552 5.25528 9.86621 7.33974 9.86621C8.34701 9.86621 9.29483 10.2579 9.98031 10.9364L11.9564 12.6886L11.9599 12.6851L13.0161 13.6225L13.0126 13.626L14.8977 15.2943C15.3454 15.7419 15.94 15.9868 16.573 15.9868C17.881 15.9868 18.9443 14.927 18.9443 13.626C18.9443 12.3249 17.881 11.2652 16.573 11.2652C15.94 11.2652 15.3454 11.51 14.8663 11.9822L14.0724 12.6852L13.0161 11.7478L13.901 10.9644C14.6144 10.2545 15.5623 9.86624 16.5695 9.86624C18.6575 9.86621 20.3503 11.552 20.3503 13.626C20.3503 15.6999 18.6575 17.3857 16.573 17.3857Z" fill="white"/>
</svg>
