<svg width="24" height="27" viewBox="0 0 24 27" fill="none" xmlns="http://www.w3.org/2000/svg">
<path fill-rule="evenodd" clip-rule="evenodd" d="M10.5487 0.388661C10.9906 0.134028 11.4917 0 12.0018 0C12.5118 0 13.0129 0.134028 13.4549 0.388661L22.5467 5.62875C22.9882 5.88296 23.355 6.24902 23.6101 6.69008C23.8651 7.13114 23.9995 7.63161 23.9996 8.14112V18.6213C23.9995 19.1308 23.8651 19.6313 23.61 20.0724C23.355 20.5135 22.9882 20.8796 22.5467 21.1339L13.4549 26.3737C13.013 26.6286 12.5119 26.7627 12.0018 26.7627C11.4917 26.7627 10.9905 26.6286 10.5487 26.3737L1.45689 21.1339C1.01539 20.8796 0.648653 20.5135 0.393587 20.0724C0.138521 19.6313 0.00412273 19.1308 0.00390625 18.6213V8.14112C0.00408836 7.63162 0.138475 7.13117 0.393546 6.69012C0.648618 6.24907 1.01537 5.883 1.45689 5.62875L10.5487 0.388661Z" fill="#03A9F4"/>
<mask id="mask0_11149_17207" style="mask-type:alpha" maskUnits="userSpaceOnUse" x="0" y="0" width="24" height="27">
<path fill-rule="evenodd" clip-rule="evenodd" d="M10.5448 0.388661C10.9867 0.134028 11.4878 0 11.9979 0C12.5079 0 13.009 0.134028 13.451 0.388661L22.5427 5.62875C22.9843 5.88296 23.3511 6.24903 23.6062 6.69008C23.8612 7.13114 23.9956 7.63161 23.9957 8.14112V18.6213C23.9956 19.1308 23.8612 19.6313 23.6061 20.0724C23.351 20.5135 22.9843 20.8796 22.5427 21.1339L13.451 26.3738C13.0091 26.6286 12.508 26.7627 11.9979 26.7627C11.4878 26.7627 10.9866 26.6286 10.5448 26.3738L1.45298 21.1339C1.01148 20.8796 0.644746 20.5135 0.389681 20.0724C0.134615 19.6313 0.00021648 19.1308 0 18.6213V8.14112C0.000182107 7.63163 0.134569 7.13117 0.38964 6.69012C0.644711 6.24908 1.01147 5.883 1.45298 5.62875L10.5448 0.388661Z" fill="#3B86FF"/>
</mask>
<g mask="url(#mask0_11149_17207)">
<path opacity="0.3" d="M12.0084 0H-0.266602V26.9516H12.0084V0Z" fill="white"/>
<path d="M10.5828 21.7665C13.9218 15.9704 15.4341 13.4289 15.4341 13.4289L16.8043 13.703C16.8043 13.703 15.1242 16.6469 11.7852 22.4432C10.4577 24.7474 7.74492 25.8958 5.15912 25.2479L2.69622 24.631C2.32612 24.5382 2.10308 24.1645 2.19843 23.7971C2.29393 23.4294 2.67204 23.2063 3.04235 23.2991L5.50525 23.916C7.48671 24.4126 9.56551 23.5324 10.5828 21.7665Z" fill="white"/>
<path d="M12.2587 18.9266L16.4881 11.6012C17.4086 10.0068 16.8604 7.9607 15.2659 7.04014C13.6715 6.11959 11.6254 6.66783 10.7048 8.26228L6.47552 15.5877C5.92319 16.5444 6.25213 17.772 7.2088 18.3243C8.16546 18.8767 9.3931 18.5477 9.94543 17.591L14.1748 10.2656C14.3589 9.94676 14.2492 9.53752 13.9303 9.35341C13.6114 9.16931 13.2022 9.27894 13.0181 9.59784L8.78877 16.9232L7.63217 16.2555L11.8615 8.93008C12.4138 7.97341 13.6415 7.64447 14.5981 8.1968C15.5548 8.74913 15.8837 9.97677 15.3314 10.9334L11.1021 18.2588C10.1815 19.8533 8.13545 20.4015 6.54103 19.481C4.94661 18.5605 4.39833 16.5144 5.31889 14.9199L9.54821 7.5945C10.837 5.3623 13.7015 4.59475 15.9337 5.88351C18.1659 7.17228 18.9335 10.0368 17.6447 12.269L13.4154 19.5944L12.2587 18.9266Z" fill="white"/>
</g>
</svg>
