<svg width="24" height="27" viewBox="0 0 24 27" fill="none" xmlns="http://www.w3.org/2000/svg">
<path fill-rule="evenodd" clip-rule="evenodd" d="M10.5487 0.388661C10.9906 0.134028 11.4917 0 12.0018 0C12.5118 0 13.0129 0.134028 13.4549 0.388661L22.5467 5.62875C22.9882 5.88296 23.355 6.24902 23.6101 6.69008C23.8651 7.13114 23.9995 7.63161 23.9996 8.14112V18.6213C23.9995 19.1308 23.8651 19.6313 23.61 20.0724C23.355 20.5135 22.9882 20.8796 22.5467 21.1339L13.4549 26.3737C13.013 26.6286 12.5119 26.7627 12.0018 26.7627C11.4917 26.7627 10.9905 26.6286 10.5487 26.3737L1.45689 21.1339C1.01539 20.8796 0.648653 20.5135 0.393587 20.0724C0.138521 19.6313 0.00412273 19.1308 0.00390625 18.6213V8.14112C0.00408836 7.63162 0.138475 7.13117 0.393546 6.69012C0.648618 6.24907 1.01537 5.883 1.45689 5.62875L10.5487 0.388661Z" fill="#D30051"/>
<mask id="mask0_11149_17178" style="mask-type:alpha" maskUnits="userSpaceOnUse" x="0" y="0" width="24" height="27">
<path fill-rule="evenodd" clip-rule="evenodd" d="M10.5448 0.388661C10.9867 0.134028 11.4878 0 11.9979 0C12.5079 0 13.009 0.134028 13.451 0.388661L22.5427 5.62875C22.9843 5.88296 23.3511 6.24903 23.6062 6.69008C23.8612 7.13114 23.9956 7.63161 23.9957 8.14112V18.6213C23.9956 19.1308 23.8612 19.6313 23.6061 20.0724C23.351 20.5135 22.9843 20.8796 22.5427 21.1339L13.451 26.3738C13.0091 26.6286 12.508 26.7627 11.9979 26.7627C11.4878 26.7627 10.9866 26.6286 10.5448 26.3738L1.45298 21.1339C1.01148 20.8796 0.644746 20.5135 0.389681 20.0724C0.134615 19.6313 0.00021648 19.1308 0 18.6213V8.14112C0.000182107 7.63163 0.134569 7.13117 0.38964 6.69012C0.644711 6.24908 1.01146 5.883 1.45298 5.62875L10.5448 0.388661Z" fill="#3B86FF"/>
</mask>
<g mask="url(#mask0_11149_17178)">
<g style="mix-blend-mode:overlay" opacity="0.6">
<path d="M12.0084 0H-0.266602V26.9516H12.0084V0Z" fill="white"/>
</g>
<path d="M12.3633 13.7842L11.1766 13.099L6.79161 20.694L7.97833 21.3791L12.3633 13.7842Z" fill="white"/>
<path d="M10.041 17.7393L10.7262 16.5525L7.19503 14.5138L6.50988 15.7006L10.041 17.7393Z" fill="white"/>
<path d="M8.80859 19.8755L9.49374 18.6888L5.9626 16.6501L5.27746 17.8368L8.80859 19.8755Z" fill="white"/>
<path fill-rule="evenodd" clip-rule="evenodd" d="M14.1313 12.9716C12.7351 13.3457 11.3001 12.5171 10.926 11.121C10.5519 9.72485 11.3804 8.28978 12.7765 7.91569C14.1727 7.54159 15.6078 8.37012 15.9819 9.76627C16.3559 11.1624 15.5274 12.5975 14.1313 12.9716ZM14.4859 14.2952C12.3588 14.8651 10.1723 13.6028 9.60235 11.4756C9.03239 9.3485 10.2947 7.16205 12.4219 6.59208C14.549 6.02211 16.7355 7.28446 17.3055 9.41161C17.8754 11.5388 16.6131 13.7252 14.4859 14.2952Z" fill="white"/>
<path d="M13.043 8.70508L15.2006 9.95077L14.6525 10.9001L12.4948 9.65445L13.043 8.70508Z" fill="white"/>
<path fill-rule="evenodd" clip-rule="evenodd" d="M14.5957 3.71496C13.7832 5.74353 14.1469 8.13285 14.5044 9.56317L13.1751 9.89551C12.8018 8.40253 12.3433 5.65322 13.3236 3.20549C13.8222 1.96071 14.6897 0.802992 16.0978 -0.0540547C17.4973 -0.905845 19.3895 -1.43597 21.9052 -1.50684L21.9438 -0.137081C19.5949 -0.0709157 17.953 0.420973 16.8102 1.11648C15.6762 1.80673 14.9935 2.72158 14.5957 3.71496Z" fill="white"/>
<path fill-rule="evenodd" clip-rule="evenodd" d="M18.612 11.3836C18.0782 11.773 17.3079 12.2148 16.4609 11.872L16.9751 10.6018C17.0873 10.6472 17.2933 10.6494 17.8044 10.2766C18.0346 10.1086 18.2766 9.9027 18.5555 9.66531L18.5767 9.64726C18.8564 9.40917 19.1679 9.14503 19.4994 8.90251C20.1565 8.42188 20.9731 7.96407 21.9453 7.94404C22.9417 7.92352 23.9567 8.36323 25.0043 9.3734L24.0531 10.3598C23.1823 9.52007 22.5015 9.30318 21.9735 9.31405C21.4212 9.32543 20.8846 9.58703 20.3085 10.0085C20.0234 10.217 19.7482 10.4496 19.4648 10.6908C19.4518 10.7018 19.4388 10.7129 19.4258 10.724C19.1621 10.9485 18.8849 11.1845 18.612 11.3836Z" fill="white"/>
</g>
</svg>
